<svg xmlns="http://www.w3.org/2000/svg" xmlns:xlink="http://www.w3.org/1999/xlink" width="1920" zoomAndPan="magnify" viewBox="0 0 1440 809.999993" height="1080" preserveAspectRatio="xMidYMid meet" version="1.0"><defs><clipPath id="5436a0ec31"><path d="M 518 585 L 1076.488281 585 L 1076.488281 750.273438 L 518 750.273438 Z M 518 585 " clip-rule="nonzero"/></clipPath><clipPath id="865e529f41"><path d="M 285 59.523438 L 317 59.523438 L 317 176 L 285 176 Z M 285 59.523438 " clip-rule="nonzero"/></clipPath><clipPath id="772a8c168b"><path d="M 238.269531 143 L 300 143 L 300 235 L 238.269531 235 Z M 238.269531 143 " clip-rule="nonzero"/></clipPath><clipPath id="a84f5e4bc5"><path d="M 25.976562 777.265625 L 39.476562 777.265625 L 39.476562 795.265625 L 25.976562 795.265625 Z M 25.976562 777.265625 " clip-rule="nonzero"/></clipPath></defs><path fill="#000000" d="M 304.402344 262.203125 C 306.8125 274.484375 309.613281 286.761719 312.757812 298.75 C 312.414062 299.089844 311.925781 299.265625 311.0625 299.265625 C 308.085938 299.265625 298.644531 296.90625 275.496094 275.109375 C 251.625 252.625 239.1875 224.953125 242.339844 217.179688 C 245.03125 217.1875 257.421875 220.539062 304.402344 262.203125 " fill-opacity="1" fill-rule="nonzero"/><path fill="#000000" d="M 254.304688 288.007812 C 262.335938 288.007812 287.003906 301.96875 320.402344 325.394531 C 324.046875 337.085938 328.128906 348.855469 332.535156 360.410156 C 332.195312 360.8125 331.546875 361.113281 330.15625 361.113281 C 327.015625 361.113281 317.09375 359.175781 293.015625 341.160156 C 266.929688 321.652344 251.613281 295.9375 253.875 288.027344 L 254.304688 288.007812 " fill-opacity="1" fill-rule="nonzero"/><path fill="#000000" d="M 274.15625 356.179688 C 283.203125 356.179688 309.496094 367.546875 342.9375 385.890625 C 347.773438 397.042969 353.042969 408.214844 358.605469 419.132812 C 358.210938 419.683594 357.339844 420.152344 355.195312 420.152344 C 351.0625 420.152344 340.65625 418.105469 317.339844 404.359375 C 289.429688 387.917969 271.519531 364.289062 272.890625 356.289062 C 273.128906 356.238281 273.527344 356.179688 274.15625 356.179688 " fill-opacity="1" fill-rule="nonzero"/><path fill="#000000" d="M 371.578125 443.28125 C 377.542969 453.808594 383.917969 464.304688 390.527344 474.527344 C 390.113281 475.253906 388.949219 475.996094 385.542969 475.996094 C 380.246094 475.996094 369.425781 473.972656 348.058594 464.277344 C 318.660156 450.960938 298.441406 429.542969 298.957031 421.523438 C 299.339844 421.386719 300.171875 421.199219 301.75 421.199219 C 312.277344 421.199219 338.332031 429.445312 371.578125 443.28125 " fill-opacity="1" fill-rule="nonzero"/><path fill="#000000" d="M 405.917969 497.148438 C 412.949219 507.019531 420.363281 516.78125 427.960938 526.210938 C 427.863281 526.46875 427.738281 526.59375 427.660156 526.683594 C 427.285156 527.066406 425.679688 528.316406 420.363281 528.316406 C 412.511719 528.316406 400.179688 525.605469 384.71875 520.464844 C 354.167969 510.328125 331.890625 491.253906 331.578125 483.273438 C 332.136719 483.007812 333.691406 482.5 337.414062 482.5 C 355.011719 482.5 392.828125 493.261719 405.917969 497.148438 " fill-opacity="1" fill-rule="nonzero"/><path fill="#000000" d="M 445.539062 547.089844 C 453.53125 556.148438 461.882812 565.097656 470.410156 573.703125 C 470.34375 573.96875 470.214844 574.144531 470.089844 574.300781 C 469.578125 574.890625 467.21875 576.820312 458.308594 576.820312 C 450.492188 576.820312 439.917969 575.371094 426.875 572.492188 C 395.519531 565.585938 371.441406 548.949219 370.316406 541.066406 C 371.070312 540.597656 373.910156 539.394531 382.957031 539.394531 C 402.523438 539.394531 434.355469 544.996094 445.539062 547.089844 " fill-opacity="1" fill-rule="nonzero"/><path fill="#000000" d="M 490.035156 592.671875 C 498.90625 600.867188 508.132812 608.917969 517.492188 616.613281 C 517.445312 616.949219 517.308594 617.164062 517.167969 617.339844 C 516.425781 618.289062 512.78125 621.394531 496.734375 621.394531 C 490.347656 621.394531 482.738281 620.894531 474.121094 619.90625 C 442.25 616.261719 416.613281 602.199219 414.703125 594.484375 C 415.769531 593.660156 421.34375 590.675781 446.675781 590.675781 C 463.058594 590.675781 480.398438 591.878906 490.035156 592.671875 " fill-opacity="1" fill-rule="nonzero"/><path fill="#000000" d="M 568.792969 654.519531 C 568.773438 654.914062 568.628906 655.167969 568.472656 655.402344 C 567.667969 656.546875 562.019531 662.285156 529.242188 662.285156 C 528.175781 662.285156 527.097656 662.277344 525.992188 662.265625 C 493.894531 661.914062 466.925781 650.515625 464.28125 643.023438 C 467.707031 639.007812 494.589844 634.398438 538.957031 633.488281 C 548.632812 640.742188 558.648438 647.8125 568.792969 654.519531 " fill-opacity="1" fill-rule="nonzero"/><g clip-path="url(#5436a0ec31)"><path fill="#000000" d="M 593.207031 668.953125 C 594.351562 668.816406 595.371094 668.152344 595.96875 667.152344 L 599.679688 660.964844 C 600.296875 659.9375 600.375 658.671875 599.914062 657.566406 C 588.105469 629.765625 586.3125 590.253906 590.945312 585.476562 C 596.449219 585.984375 607.628906 600.808594 620.058594 632.675781 C 625.511719 646.695312 634.628906 670.179688 630.75 673.753906 C 629.859375 674.585938 629.410156 675.808594 629.585938 677.023438 C 629.75 678.238281 630.496094 679.296875 631.582031 679.863281 C 714.609375 722.519531 807.421875 745.070312 899.976562 745.070312 C 958.566406 745.070312 1017.542969 736.246094 1075.339844 718.847656 C 1075.835938 720.441406 1076.328125 722.046875 1076.816406 723.652344 C 1018.503906 741.222656 958.996094 750.132812 899.898438 750.132812 C 806.609375 750.132812 713.042969 727.394531 629.332031 684.386719 C 628.234375 683.820312 626.929688 683.839844 625.835938 684.417969 C 624.757812 684.992188 624.023438 686.070312 623.875 687.296875 C 623.542969 690.117188 614.398438 696.214844 582.074219 699.132812 C 577.792969 699.535156 573.417969 699.730469 569.070312 699.730469 C 541.328125 699.730469 521.371094 692.035156 518.628906 686.304688 C 521.625 681.898438 548.359375 674.4375 593.207031 668.953125 " fill-opacity="1" fill-rule="nonzero"/></g><path fill="#000000" d="M 341.429688 198.90625 C 333.574219 211.480469 320.433594 232.503906 314.78125 232.511719 C 314.683594 232.511719 314.507812 232.511719 314.253906 232.394531 C 312.472656 220.234375 311.050781 207.828125 310.054688 195.488281 C 325.074219 170.636719 353.914062 145.683594 362.5 145.097656 C 362.890625 145.070312 363.265625 144.992188 363.605469 144.851562 C 363.585938 147.136719 363.585938 149.40625 363.605469 151.679688 C 363.363281 152.070312 363.195312 152.5 363.097656 152.960938 C 361.023438 163.566406 353.121094 180.3125 341.429688 198.90625 " fill-opacity="1" fill-rule="nonzero"/><path fill="#000000" d="M 327.386719 295.027344 L 326.996094 294.96875 C 323.917969 283.1875 321.175781 271.222656 318.867188 259.355469 C 331.683594 231.9375 358.808594 204.664062 365.929688 204.3125 C 368.808594 208.128906 367.003906 225.445312 350.445312 259.1875 C 344.308594 271.710938 332.871094 295.027344 327.386719 295.027344 " fill-opacity="1" fill-rule="nonzero"/><path fill="#000000" d="M 346.539062 355.152344 L 346.285156 355.121094 C 341.996094 343.851562 338.019531 332.382812 334.464844 320.996094 C 344.445312 292.265625 368.628906 262.496094 375.378906 261.890625 C 378.667969 265.269531 378.71875 282.40625 365.839844 317.355469 C 360.964844 330.5625 351.914062 355.152344 346.539062 355.152344 " fill-opacity="1" fill-rule="nonzero"/><path fill="#000000" d="M 371.824219 412.445312 L 371.714844 412.445312 C 366.328125 401.832031 361.1875 390.933594 356.449219 380.023438 C 363.34375 350.707031 384.484375 318.382812 390.917969 317.363281 C 394.523438 320.292969 396.363281 337.144531 387.226562 373.011719 C 383.710938 386.789062 377.179688 412.445312 371.824219 412.445312 " fill-opacity="1" fill-rule="nonzero"/><path fill="#000000" d="M 402.902344 466.519531 C 396.449219 456.570312 390.222656 446.328125 384.394531 436.027344 C 388.226562 406.265625 405.871094 372.042969 412.148438 370.367188 C 416.046875 372.875 419.609375 389.328125 414.222656 425.773438 C 412.285156 438.945312 408.25 466.285156 402.902344 466.519531 " fill-opacity="1" fill-rule="nonzero"/><path fill="#000000" d="M 439.390625 516.9375 C 431.988281 507.734375 424.769531 498.214844 417.90625 488.601562 C 418.660156 458.664062 432.671875 422.855469 438.734375 420.535156 C 442.847656 422.609375 448.066406 438.542969 446.46875 475.261719 C 445.882812 488.570312 444.695312 516.019531 439.390625 516.9375 " fill-opacity="1" fill-rule="nonzero"/><path fill="#000000" d="M 480.839844 563.304688 C 472.546875 554.933594 464.398438 546.207031 456.585938 537.335938 C 454.253906 507.5 464.488281 470.4375 470.273438 467.488281 C 474.5625 469.125 481.367188 484.417969 483.554688 521.089844 C 484.433594 535.925781 485.777344 558.359375 481.566406 562.824219 C 481.328125 563.082031 481.113281 563.226562 480.839844 563.304688 " fill-opacity="1" fill-rule="nonzero"/><path fill="#000000" d="M 526.777344 605.1875 C 517.699219 597.726562 508.699219 589.871094 499.992188 581.832031 C 494.609375 552.339844 500.984375 514.304688 506.425781 510.867188 C 510.675781 511.808594 519.097656 526.25 525.101562 562.84375 C 527.402344 576.808594 531.25 600.171875 527.363281 604.746094 C 527.226562 604.914062 527.058594 605.070312 526.777344 605.1875 " fill-opacity="1" fill-rule="nonzero"/><path fill="#000000" d="M 576.832031 642.183594 C 566.933594 635.632812 557.171875 628.738281 547.75 621.667969 C 539.339844 592.898438 541.71875 554.414062 546.761719 550.3125 C 551.207031 550.976562 561 564.558594 570.734375 600.183594 C 574.484375 613.910156 580.769531 636.894531 577.34375 641.722656 C 577.234375 641.878906 577.089844 642.046875 576.832031 642.183594 " fill-opacity="1" fill-rule="nonzero"/><g clip-path="url(#865e529f41)"><path fill="#000000" d="M 314.832031 161.785156 C 310.21875 166.328125 305.707031 170.929688 301.378906 175.484375 C 296.492188 171.292969 291.683594 167.011719 287.03125 162.722656 C 286.023438 153.765625 285.621094 144.421875 285.835938 134.953125 C 286.667969 93.101562 299.792969 62.667969 306.65625 60.03125 C 306.941406 59.925781 307.214844 59.777344 307.457031 59.613281 L 308.007812 60.179688 C 310.796875 62.492188 317.183594 74.445312 316.007812 135.433594 C 315.800781 144.726562 315.398438 153.578125 314.832031 161.785156 " fill-opacity="1" fill-rule="nonzero"/></g><g clip-path="url(#772a8c168b)"><path fill="#000000" d="M 238.726562 144.109375 C 246.011719 145.402344 268.710938 166.503906 295.355469 196.734375 C 296.394531 209.363281 297.851562 222.09375 299.683594 234.609375 C 299.339844 234.914062 298.957031 234.992188 298.460938 234.992188 L 298.449219 234.992188 C 296.238281 234.992188 287.296875 232.945312 265.265625 206.660156 C 251.585938 190.28125 241.085938 170.027344 238.519531 155.078125 C 238.433594 154.546875 238.238281 154.058594 237.953125 153.636719 C 237.921875 150.386719 237.921875 147.136719 237.953125 143.882812 C 238.199219 143.980469 238.453125 144.058594 238.726562 144.109375 " fill-opacity="1" fill-rule="nonzero"/></g><g clip-path="url(#a84f5e4bc5)"><path fill="#000000" d="M 39.21875 792.3125 L 39.089844 792.3125 C 38.941406 792.3125 38.816406 792.429688 38.808594 792.574219 C 38.792969 792.777344 38.769531 793.070312 38.714844 793.382812 C 38.664062 793.6875 38.394531 793.902344 38.085938 793.902344 L 30.609375 793.902344 C 30.335938 793.902344 30.113281 793.6875 30.113281 793.417969 L 30.113281 778.621094 C 30.113281 778.328125 30.3125 778.070312 30.601562 777.992188 C 30.84375 777.921875 31.089844 777.878906 31.25 777.84375 C 31.355469 777.824219 31.429688 777.734375 31.429688 777.632812 L 31.429688 777.476562 C 31.429688 777.363281 31.332031 777.265625 31.214844 777.265625 L 27.878906 777.265625 C 27.554688 777.265625 27.289062 777.527344 27.289062 777.847656 L 27.289062 793.898438 C 27.289062 794.191406 27.089844 794.453125 26.804688 794.53125 C 26.558594 794.597656 26.3125 794.644531 26.152344 794.675781 C 26.050781 794.703125 25.976562 794.789062 25.976562 794.898438 L 25.976562 795.050781 C 25.976562 795.167969 26.070312 795.261719 26.191406 795.261719 L 39.160156 795.261719 C 39.332031 795.261719 39.476562 795.125 39.476562 794.953125 L 39.476562 792.570312 C 39.476562 792.429688 39.359375 792.3125 39.21875 792.3125 Z M 39.21875 792.3125 " fill-opacity="1" fill-rule="nonzero"/></g></svg>