<svg xmlns="http://www.w3.org/2000/svg" xmlns:xlink="http://www.w3.org/1999/xlink" width="50" zoomAndPan="magnify" viewBox="0 0 37.5 37.499999" height="50" preserveAspectRatio="xMidYMid meet" version="1.0"><defs><clipPath id="320e940ab8"><path d="M 0 0 L 37.007812 0 L 37.007812 37.007812 L 0 37.007812 Z M 0 0 " clip-rule="nonzero"/></clipPath><clipPath id="5161bc15d6"><path d="M 5.550781 9.257812 L 31 9.257812 L 31 20 L 5.550781 20 Z M 5.550781 9.257812 " clip-rule="nonzero"/></clipPath><clipPath id="8590a2160a"><path d="M 5.550781 12 L 31.457031 12 L 31.457031 27.761719 L 5.550781 27.761719 Z M 5.550781 12 " clip-rule="nonzero"/></clipPath></defs><g clip-path="url(#320e940ab8)"><path fill="#ffffff" d="M 0 0 L 37.007812 0 L 37.007812 37.007812 L 0 37.007812 Z M 0 0 " fill-opacity="1" fill-rule="nonzero"/><path fill="#ffffff" d="M 0 0 L 37.007812 0 L 37.007812 37.007812 L 0 37.007812 Z M 0 0 " fill-opacity="1" fill-rule="nonzero"/></g><g clip-path="url(#5161bc15d6)"><path fill="#000000" d="M 16.808594 18.8125 C 17.050781 19 17.320312 19.144531 17.609375 19.242188 C 17.898438 19.339844 18.195312 19.390625 18.5 19.390625 C 18.808594 19.390625 19.105469 19.339844 19.394531 19.242188 C 19.683594 19.144531 19.949219 19 20.191406 18.8125 L 30.929688 10.4375 C 30.671875 10.066406 30.34375 9.777344 29.941406 9.570312 C 29.542969 9.363281 29.117188 9.257812 28.667969 9.257812 L 8.339844 9.257812 C 7.859375 9.257812 7.414062 9.378906 6.996094 9.609375 C 6.578125 9.84375 6.246094 10.164062 5.992188 10.574219 Z M 16.808594 18.8125 " fill-opacity="1" fill-rule="nonzero"/></g><g clip-path="url(#8590a2160a)"><path fill="#000000" d="M 21.324219 20.28125 C 20.921875 20.589844 20.476562 20.828125 19.996094 20.992188 C 19.511719 21.15625 19.015625 21.238281 18.507812 21.238281 C 17.996094 21.238281 17.5 21.15625 17.019531 20.992188 C 16.535156 20.828125 16.09375 20.589844 15.6875 20.28125 L 5.566406 12.574219 L 5.566406 24.988281 C 5.566406 25.355469 5.636719 25.707031 5.777344 26.046875 C 5.917969 26.386719 6.121094 26.6875 6.378906 26.949219 C 6.640625 27.210938 6.9375 27.410156 7.277344 27.550781 C 7.617188 27.691406 7.972656 27.761719 8.339844 27.761719 L 28.667969 27.761719 C 29.035156 27.761719 29.386719 27.691406 29.726562 27.550781 C 30.066406 27.410156 30.367188 27.210938 30.628906 26.949219 C 30.886719 26.6875 31.085938 26.386719 31.226562 26.046875 C 31.367188 25.707031 31.4375 25.355469 31.4375 24.988281 L 31.4375 12.390625 Z M 21.324219 20.28125 " fill-opacity="1" fill-rule="nonzero"/></g></svg>