<svg xmlns="http://www.w3.org/2000/svg" xmlns:xlink="http://www.w3.org/1999/xlink" width="50" zoomAndPan="magnify" viewBox="0 0 37.5 37.499999" height="50" preserveAspectRatio="xMidYMid meet" version="1.0"><defs><clipPath id="ca282667a3"><path d="M 0 0 L 37.007812 0 L 37.007812 37.007812 L 0 37.007812 Z M 0 0 " clip-rule="nonzero"/></clipPath><clipPath id="6e1ece2888"><path d="M 9 3 L 29 3 L 29 33.539062 L 9 33.539062 Z M 9 3 " clip-rule="nonzero"/></clipPath></defs><g clip-path="url(#ca282667a3)"><path fill="#ffffff" d="M 0 0 L 37.007812 0 L 37.007812 37.007812 L 0 37.007812 Z M 0 0 " fill-opacity="1" fill-rule="nonzero"/><path fill="#ffffff" d="M 0 0 L 37.007812 0 L 37.007812 37.007812 L 0 37.007812 Z M 0 0 " fill-opacity="1" fill-rule="nonzero"/></g><g clip-path="url(#6e1ece2888)"><path fill="#3abef9" d="M 18.945312 17.96875 C 16.3125 17.96875 14.175781 15.835938 14.175781 13.203125 C 14.175781 10.570312 16.3125 8.433594 18.945312 8.433594 C 21.578125 8.433594 23.710938 10.570312 23.710938 13.203125 C 23.710938 15.835938 21.578125 17.96875 18.945312 17.96875 Z M 27.472656 8.746094 C 24.71875 4.039062 18.667969 2.453125 13.960938 5.207031 C 9.25 7.960938 7.667969 14.011719 10.421875 18.71875 L 18.945312 33.296875 L 27.472656 18.71875 C 29.203125 15.742188 29.335938 11.929688 27.472656 8.746094 " fill-opacity="1" fill-rule="nonzero"/></g></svg>