<svg xmlns="http://www.w3.org/2000/svg" xmlns:xlink="http://www.w3.org/1999/xlink" width="50" zoomAndPan="magnify" viewBox="0 0 37.5 37.499999" height="50" preserveAspectRatio="xMidYMid meet" version="1.0"><defs><clipPath id="abaece83d8"><path d="M 0 0 L 37.007812 0 L 37.007812 37.007812 L 0 37.007812 Z M 0 0 " clip-rule="nonzero"/></clipPath><clipPath id="0aeddb031e"><path d="M 7.402344 7.402344 L 29.605469 7.402344 L 29.605469 29.605469 L 7.402344 29.605469 Z M 7.402344 7.402344 " clip-rule="nonzero"/></clipPath></defs><g clip-path="url(#abaece83d8)"><path fill="#ffffff" d="M 0 0 L 37.007812 0 L 37.007812 37.007812 L 0 37.007812 Z M 0 0 " fill-opacity="1" fill-rule="nonzero"/><path fill="#ffffff" d="M 0 0 L 37.007812 0 L 37.007812 37.007812 L 0 37.007812 Z M 0 0 " fill-opacity="1" fill-rule="nonzero"/></g><g clip-path="url(#0aeddb031e)"><path fill="#000000" d="M 29.332031 23.703125 C 29.492188 24.132812 29.585938 24.601562 29.601562 25.085938 C 29.605469 25.132812 29.605469 25.179688 29.605469 25.226562 C 29.605469 27.644531 27.644531 29.605469 25.226562 29.605469 C 15.382812 29.605469 7.402344 21.625 7.402344 11.78125 C 7.402344 9.363281 9.363281 7.402344 11.78125 7.402344 C 11.828125 7.402344 11.875 7.402344 11.921875 7.40625 C 12.40625 7.417969 12.875 7.515625 13.308594 7.675781 L 14.949219 14.792969 C 14.949219 14.796875 14.949219 14.796875 14.945312 14.800781 L 11.929688 16.152344 L 11.921875 16.15625 C 13.304688 20.371094 16.636719 23.703125 20.847656 25.085938 L 20.851562 25.074219 L 22.210938 22.058594 L 29.332031 23.703125 " fill-opacity="1" fill-rule="nonzero"/></g></svg>